<svg xmlns="http://www.w3.org/2000/svg" fill-rule="evenodd" stroke-linejoin="round" stroke-miterlimit="2" viewBox="0 0 210 47"><clipPath id="a"><path d="M0 0h209.38v46.88H0z"/></clipPath><g clip-path="url(#a)"><clipPath id="b"><path d="M0 3.16h209.37v40.58H0z"/></clipPath><g clip-path="url(#b)"><path d="M.01 46.88h3.12L.01 43.76h3.12v3.13H.01zm9.37.01H6.25v-3.12h3.13v3.13zm3.13 0v-3.12h3.13v3.13H12.5zm9.38 0h-3.12v-3.12h3.13v3.13zm6.25 0H25v-3.12h3.13v3.13zm6.25 0h-3.12v-3.12h3.13v3.13zm6.25 0H37.5v-3.12h3.13v3.13zm6.25 0h-3.12v-3.12h3.13v3.13zm6.25 0H50v-3.12h3.13v3.13zm6.25 0h-3.12v-3.12h3.13v3.13zm6.25 0H62.5v-3.12h3.13v3.13zm3.13 0v-3.12h3.13v3.13h-3.12zm9.38 0H75v-3.12h3.13v3.13zm3.13 0v-3.12h3.13v3.13h-3.12zm6.25 0v-3.12h3.13v3.13H87.5zm9.38 0h-3.12v-3.12h3.13v3.13zm3.13 0v-3.12h3.13v3.13H100zm9.38 0h-3.12v-3.12h3.13v3.13zm3.13 0v-3.12h3.13v3.13h-3.12zm9.38 0h-3.12v-3.12h3.13v3.13zm3.13 0v-3.12h3.12v3.13H125zm9.37 0h-3.12v-3.12h3.13v3.13zm6.25 0h-3.12v-3.12h3.13v3.13zm6.25 0h-3.12v-3.12h3.13v3.13zm6.25 0H150v-3.12h3.13v3.13zm6.25 0h-3.12v-3.12h3.13v3.13zm6.25 0h-3.12v-3.12h3.13v3.13zm6.25 0h-3.12v-3.12h3.13v3.13zm3.13 0v-3.12h3.13v3.13H175zm9.38 0h-3.12v-3.12h3.13v3.13zm6.25 0h-3.12v-3.12h3.12v3.13zm6.25 0h-3.12v-3.12h3.13v3.13zm3.13 0v-3.12h3.13v3.13H200zm9.38-6.24v6.24h-3.12v-6.24h3.13zM.01 40.63h3.13v3.13H.01v-3.12zm209.37-6.24v3.12h-3.12v-3.12h3.13zM.01 34.38h3.13v3.13H.01v-3.12zm209.37-6.24v3.13h-3.12v-3.12h3.13zM.01 28.13h3.13v3.13H.01v-3.12zm209.37-6.24V25h-3.12v-3.12h3.13zM.01 21.88h3.13V25H.01v-3.12zm209.37-6.24v3.12h-3.12v-3.12h3.13zM.01 15.63h3.13v3.13H.01v-3.12zM209.38 9.4v3.12h-3.12V9.4h3.13zM.01 9.38h3.13v3.13H.01V9.38zm209.37-6.24v3.13h-3.12V3.14h3.13zM.01 3.13h3.13v3.13H.01V3.13zM65.63 0v3.13H62.5V0h3.13zm-6.25 0v3.13h-3.12V0h3.13zm12.5 0v3.13h-3.12V0h3.13zm6.25 0v3.13H75V0h3.13zm12.5 0v3.13H87.5V0h3.13zm6.25 0v3.13h-3.12V0h3.13zm12.5 0v3.13h-3.12V0h3.13zm-25 0v3.13h-3.12V0h3.13zm37.5 0v3.13h-3.12V0h3.13zm-6.25 0v3.13h-3.12V0h3.13zm68.75 0v3.13h-3.12V0h3.13zM53.13 0v3.13H50V0h3.13zm50 0v3.13H100V0h3.13zm25 0v3.13H125V0h3.13zM34.38 0v3.13h-3.12V0h3.13zm118.75 0v3.13H150V0h3.13zm12.5 0v3.13h-3.12V0h3.13zm-6.25 0v3.13h-3.12V0h3.13zM40.63 0v3.13H37.5V0h3.13zm6.25 0v3.13h-3.12V0h3.13zM28.13 0v3.13H25V0h3.13zm118.75 0v3.13h-3.12V0h3.13zm-12.5 0v3.13h-3.12V0h3.13zm6.25 0v3.13h-3.12V0h3.13zm50 0v3.13h-3.12V0h3.13zm6.25 0v3.13h-3.12V0h3.13zm-18.75 0v3.13H175V0h3.13zM15.63 0v3.13H12.5V0h3.13zm6.25 0v3.13h-3.12V0h3.13zM9.38 0v3.13H6.26V0h3.12zm162.5 0v3.13h-3.12V0h3.13zm31.25 0v3.13H200V0h3.13zm6.25 3.13h-3.12V0h3.13v3.13zM3.13 0v3.13H.01L3.13 0zm0 0H.01h3.13z"/></g><clipPath id="c"><path d="M3.22 0h202.94v46.88H3.22z"/></clipPath><g clip-path="url(#c)"><path d="M.01 43.75l6.25.01v3.13H.01v-3.12zm12.5 3.13H9.38v-3.12h3.13v3.13zm6.25 0h-3.12v-3.12h3.13v3.13zm6.25 0h-3.12v-3.12H25v3.13zm3.13 0v-3.12h3.13v3.13h-3.12zm9.38 0H34.4v-3.12h3.13v3.13zm3.13 0v-3.12h3.13v3.13h-3.12zm9.38 0h-3.12v-3.12H50v3.13zm6.25 0h-3.12v-3.12h3.13v3.13zm6.25 0h-3.12v-3.12h3.13v3.13zm6.25 0h-3.12v-3.12h3.13v3.13zm6.25 0h-3.12v-3.12H75v3.13zm3.13 0v-3.12h3.13v3.13h-3.12zm9.38 0h-3.12v-3.12h3.13v3.13zm6.25 0h-3.12v-3.12h3.13v3.13zm3.13 0v-3.12H100v3.13h-3.12zm9.38 0h-3.12v-3.12h3.13v3.13zm6.25 0h-3.12v-3.12h3.13v3.13zm6.25 0h-3.12v-3.12h3.13v3.13zm6.25 0h-3.12v-3.12H125v3.13zm6.25 0h-3.12v-3.12h3.13v3.13zm3.13 0v-3.12h3.13v3.13h-3.12zm9.38 0h-3.12v-3.12h3.13v3.13zm3.13 0v-3.12H150v3.13h-3.12zm9.38 0h-3.12v-3.12h3.13v3.13zm6.25 0h-3.12v-3.12h3.13v3.13zm6.25 0h-3.12v-3.12h3.13v3.13zm6.25 0h-3.12v-3.12H175v3.13zm6.25 0h-3.12v-3.12h3.13v3.13zm6.25 0h-3.12v-3.12h3.13v3.13zm6.25 0h-3.12v-3.12h3.13v3.13zm6.25 0h-3.12v-3.12H200v3.13zm6.25 0h-3.12v-3.12h3.13v3.13zm3.13-3.12l-3.12 3.12v-3.12h3.12zm0 3.12v-3.12 3.12zm0-9.37v3.13h-3.12V37.5h3.13zM.01 37.5h3.13v3.13H.01V37.5zm209.37-6.24v3.13h-3.12v-3.12h3.13zM.01 31.25h3.13v3.13H.01v-3.12zM209.38 25v3.13h-3.12V25h3.13zM.01 25h3.13v3.13H.01V25zm209.37-6.24v3.13h-3.12v-3.12h3.13zM.01 18.75h3.13v3.13H.01v-3.12zm209.37-6.24v3.13h-3.12V12.5h3.13zM.01 12.5h3.13v3.13H.01V12.5zm209.37-6.24V9.4h-3.12V6.26h3.13zM.01 6.25h3.13v3.13H.01V6.25zM209.38.01v3.13h-3.12V.01h3.13zM6.26 3.13H.01V0h6.25v3.13zM62.5 0v3.13h-3.12V0h3.13zM75 0v3.13h-3.12V0H75zm12.5 0v3.13h-3.12V0h3.13zM100 0v3.13h-3.12V0H100zm12.5 0v3.13h-3.12V0h3.13zm6.25 0v3.13h-3.12V0h3.13zm-25 0v3.13h-3.12V0h3.13zm-37.5 0v3.13h-3.12V0h3.13zm25 0v3.13h-3.12V0h3.13zm-12.5 0v3.13h-3.12V0h3.13zM187.5 0v3.13h-3.12V0h3.13zm-81.25 0v3.13h-3.12V0h3.13zM125 0v3.13h-3.12V0H125zm25 0v3.13h-3.12V0H150zM31.26 0v3.13h-3.12V0h3.13zM50 0v3.13h-3.12V0H50zm112.5 0v3.13h-3.12V0h3.13zM43.76 0v3.13h-3.12V0h3.13zm100 0v3.13h-3.12V0h3.13zm12.5 0v3.13h-3.12V0h3.13zM37.5 0v3.13h-3.12V0h3.13zm143.75 0v3.13h-3.12V0h3.13zm-50 0v3.13h-3.12V0h3.13zm37.5 0v3.13h-3.12V0h3.13zM200 0v3.13h-3.12V0H200zm-6.25 0v3.13h-3.12V0h3.13zM175 0v3.13h-3.12V0H175zM18.76 0v3.13h-3.12V0h3.13zM137.5 0v3.13h-3.12V0h3.13zM25 0v3.13h-3.12V0H25zM12.5 0v3.13H9.38V0h3.13zm193.75 0v3.13h-3.12V0h3.13z"/></g></g></svg>